<svg width="60" height="60" viewBox="0 0 60 60" fill="none" xmlns="http://www.w3.org/2000/svg">
<path d="M11.25 9.37524L48.75 50.6252" stroke="#D8E3E1" stroke-width="2" stroke-linecap="round" stroke-linejoin="round"/>
<path d="M36.3064 36.9372C34.4665 38.6095 32.0377 39.4825 29.5543 39.3641C27.0708 39.2457 24.7361 38.1457 23.0636 36.306C21.3912 34.4663 20.518 32.0376 20.6362 29.5541C20.7543 27.0707 21.8541 24.7358 23.6937 23.0632" stroke="#D8E3E1" stroke-width="2" stroke-linecap="round" stroke-linejoin="round"/>
<path d="M17.3425 16.0769C7.78715 20.9157 3.75 30.0003 3.75 30.0003C3.75 30.0003 11.25 46.8735 30 46.8735C34.3931 46.9085 38.7314 45.8966 42.6557 43.9216" stroke="#D8E3E1" stroke-width="2" stroke-linecap="round" stroke-linejoin="round"/>
<path d="M48.8928 39.6328C54.0026 35.0561 56.25 30.0002 56.25 30.0002C56.25 30.0002 48.75 13.1233 30 13.1233C28.3761 13.1207 26.7547 13.2527 25.1526 13.5181" stroke="#D8E3E1" stroke-width="2" stroke-linecap="round" stroke-linejoin="round"/>
<path d="M31.7642 20.7913C33.7568 21.1739 35.5716 22.1922 36.9365 23.6936C38.3013 25.195 39.1425 27.0984 39.334 29.1183" stroke="#D8E3E1" stroke-width="2" stroke-linecap="round" stroke-linejoin="round"/>
</svg>
